<svg width="87" height="34" viewBox="0 0 87 34" fill="none" xmlns="http://www.w3.org/2000/svg">
<path d="M70.5098 0C70.5179 0.178058 70.5341 0.348023 70.5341 0.526082C70.5341 11.1287 70.5341 21.7312 70.5341 32.3338C70.5341 32.9246 70.5341 32.9246 69.9512 32.9246C68.4779 32.9246 67.0126 32.9165 65.5393 32.9327C65.1831 32.9408 65.0536 32.8518 65.0536 32.4714C65.1021 25.4543 65.1345 18.4452 65.1669 11.4281C65.1669 10.9182 65.1669 10.4083 65.1183 9.89034C64.9888 11.0963 64.8674 12.3022 64.746 13.5082C64.6002 14.9407 64.4626 16.3814 64.325 17.8139C64.1388 19.6916 63.9526 21.5694 63.7664 23.4471C63.6288 24.7906 63.4912 26.126 63.3617 27.4696C63.2079 29.0397 63.046 30.6099 62.9083 32.18C62.8436 32.9327 62.8598 32.9327 62.1312 32.9327C61.095 32.9327 60.0507 32.9327 59.0145 32.9327C58.8688 32.9327 58.7231 32.9327 58.5288 32.9327C57.695 25.2762 56.8693 17.6602 56.0436 10.0441C56.0355 10.0441 56.0274 10.0441 56.0193 10.036C56.0112 10.206 55.995 10.376 55.995 10.5378C56.0436 17.8058 56.1002 25.082 56.1488 32.35C56.1569 32.9327 56.1488 32.9327 55.5498 32.9327C54.1169 32.9327 52.6921 32.9246 51.2593 32.9408C50.9193 32.9489 50.7979 32.868 50.7979 32.4957C50.8059 21.796 50.8059 11.1044 50.8059 0.404678C50.8059 0.275181 50.8302 0.137591 50.8383 0.00809406C53.1859 0.00809406 55.5336 0.00809406 57.8812 0.00809406C57.9136 0.275182 57.9379 0.542269 57.9864 0.809357C58.294 2.5171 58.6017 4.22484 58.9093 5.93258C59.2007 7.55939 59.5326 9.1862 59.7755 10.8211C60.0426 12.626 60.245 14.447 60.4636 16.2681C60.5445 16.9479 60.5769 17.6278 60.6336 18.3076C60.7307 17.7978 60.7793 17.2879 60.8036 16.778C60.9736 13.5567 61.5969 10.4002 62.1069 7.22755C62.3255 5.87593 62.5441 4.51621 62.7707 3.16458C62.9407 2.12051 63.1188 1.06835 63.2969 0.0242797C65.7093 -9.88949e-07 68.1055 0 70.5098 0Z" fill="white"/>
<path d="M0 0.322266C0.161905 0.330359 0.32381 0.346545 0.485714 0.346545C2.88191 0.346545 5.28619 0.346545 7.68238 0.346545C8.89667 0.346545 10.0705 0.524606 11.1876 1.02641C12.9038 1.7953 13.851 3.20358 14.3124 4.96797C14.8548 7.02374 14.9519 9.11998 14.6929 11.2243C14.5229 12.5921 14.1424 13.9195 13.0252 14.834C12.5233 15.2468 11.8838 15.4896 11.3576 15.7891C12.0052 15.9024 12.6852 16.1938 13.2681 16.6875C14.3286 17.5778 14.9357 18.7594 15.2757 20.0706C15.9881 22.8143 15.9881 25.5661 15.1948 28.2855C14.4338 30.9079 12.6852 32.5266 9.97334 33.0365C9.22048 33.1741 8.45143 33.255 7.69048 33.2631C5.12429 33.2874 2.5581 33.2631 0 33.2631C0 22.2801 0 11.3052 0 0.322266ZM5.79619 23.5994C5.79619 25.388 5.80429 27.1848 5.7881 28.9735C5.7881 29.3215 5.89333 29.4186 6.22524 29.3944C6.67857 29.3701 7.14 29.3944 7.60143 29.3782C8.18429 29.3539 8.67 29.1192 8.90476 28.5769C9.09905 28.1318 9.26095 27.6462 9.33381 27.1605C9.60905 25.1614 9.59286 23.1542 9.45524 21.147C9.40667 20.4348 9.22048 19.7145 8.99381 19.0346C8.74286 18.2657 8.15191 17.8368 7.31 17.8368C6.94572 17.8368 6.58143 17.8529 6.21714 17.8206C5.86905 17.7963 5.7881 17.942 5.79619 18.2657C5.80429 20.0382 5.79619 21.8188 5.79619 23.5994ZM5.83667 4.28811C5.82048 4.32049 5.80429 4.34477 5.80429 4.36905C5.79619 7.37986 5.79619 10.3826 5.7881 13.3934C5.7881 13.6281 5.90143 13.6928 6.11191 13.6847C6.45191 13.6767 6.78381 13.6847 7.12381 13.6847C8.11953 13.6686 8.66191 13.2558 8.8481 12.2765C9.24476 10.164 9.1881 8.03544 8.81572 5.93111C8.6781 5.15413 8.29762 4.46617 7.43953 4.32049C6.92143 4.21527 6.37095 4.28811 5.83667 4.28811Z" fill="white"/>
<path d="M39.1004 33.9907C38.55 33.8693 37.9914 33.7802 37.449 33.6346C35.069 32.979 33.5957 31.4412 33.1423 29.0131C32.9804 28.1552 32.9076 27.273 32.9076 26.407C32.8914 17.9007 32.8995 9.38622 32.8995 0.879879C32.8995 0.353797 32.8995 0.353797 33.4257 0.353797C35.069 0.353797 36.7204 0.353797 38.3638 0.353797C38.5095 0.353797 38.6552 0.353797 38.8495 0.353797C38.8576 0.556136 38.8738 0.718008 38.8738 0.887973C38.8738 9.4105 38.8738 17.933 38.8819 26.4556C38.8819 27.0302 38.9304 27.6129 39.0114 28.1876C39.1328 29.0941 39.6509 29.5068 40.5981 29.4987C41.5128 29.4906 42.0147 29.0779 42.12 28.1714C42.1928 27.5806 42.2252 26.9897 42.2252 26.3989C42.2333 17.8926 42.2333 9.37813 42.2333 0.871785C42.2333 0.353797 42.2333 0.353797 42.7595 0.353797C44.3624 0.353797 45.9733 0.36189 47.5762 0.345703C47.8757 0.345703 47.9971 0.410454 47.9971 0.74229C47.989 9.50762 47.989 18.273 47.989 27.0383C47.989 28.1795 47.8514 29.2964 47.4305 30.3648C46.7424 32.1372 45.3905 33.157 43.5852 33.6265C43.0186 33.7721 42.4357 33.8693 41.8609 33.9826C40.9381 33.9907 40.0152 33.9907 39.1004 33.9907Z" fill="white"/>
<path d="M85.7041 0.345703C85.7041 2.01298 85.7041 3.6236 85.7041 5.28278C85.5341 5.29087 85.3803 5.30706 85.2184 5.30706C83.4536 5.30706 81.6807 5.31516 79.916 5.30706C79.6488 5.30706 79.495 5.33944 79.495 5.67127C79.5031 8.42309 79.5031 11.1749 79.5031 13.9267C79.5031 13.9915 79.5112 14.0562 79.5193 14.1776C81.3326 14.1776 83.1298 14.1776 84.9593 14.1776C84.9593 15.7316 84.9593 17.237 84.9593 18.7829C84.8136 18.7909 84.6598 18.8152 84.506 18.8152C82.9679 18.8152 81.4298 18.8233 79.8917 18.8071C79.6003 18.8071 79.495 18.88 79.495 19.1875C79.5031 22.1012 79.5031 25.0149 79.495 27.9286C79.495 28.2766 79.6326 28.3252 79.9241 28.3252C82.0045 28.3171 84.0769 28.3252 86.1574 28.3171C86.5136 28.3171 86.6188 28.4223 86.6188 28.7784C86.6026 30.1543 86.6026 31.5302 86.6188 32.9061C86.6188 33.1813 86.5541 33.2865 86.2545 33.2865C82.1664 33.2784 78.0783 33.2784 73.9902 33.2784C73.9093 33.2784 73.8283 33.2622 73.7069 33.2461C73.6988 33.1004 73.6907 32.9547 73.6907 32.8171C73.6907 22.1498 73.6907 11.4825 73.6826 0.815132C73.6826 0.434734 73.7879 0.345703 74.1602 0.345703C77.8598 0.36189 81.5512 0.353797 85.2507 0.353797C85.3965 0.345704 85.5422 0.345703 85.7041 0.345703Z" fill="white"/>
<path d="M17.8665 16.8004C17.8665 11.4991 17.8665 6.19778 17.8665 0.904586C17.8665 0.354223 17.8665 0.354222 18.417 0.354222C20.0603 0.354222 21.7117 0.370409 23.3551 0.346128C23.7598 0.338034 23.8731 0.443253 23.8731 0.864118C23.857 9.83179 23.8651 18.7995 23.8651 27.7671C23.8651 28.3337 23.8651 28.3337 24.4398 28.3418C26.407 28.3418 28.3822 28.3499 30.3493 28.3337C30.7055 28.3337 30.8189 28.4308 30.8108 28.795C30.7946 30.1547 30.7946 31.5226 30.8108 32.8823C30.8189 33.2384 30.6893 33.3031 30.3655 33.3031C26.3422 33.2951 22.327 33.2951 18.3036 33.3031C17.9313 33.3031 17.8584 33.1817 17.8584 32.8337C17.8746 27.4758 17.8665 22.134 17.8665 16.8004Z" fill="white"/>
</svg>
