<svg width="87" height="35" viewBox="0 0 87 35" fill="none" xmlns="http://www.w3.org/2000/svg">
<path d="M70.5098 0.992188C70.5179 1.17025 70.5341 1.34021 70.5341 1.51827C70.5341 12.1208 70.5341 22.7234 70.5341 33.326C70.5341 33.9168 70.5341 33.9168 69.9512 33.9168C68.4779 33.9168 67.0126 33.9087 65.5393 33.9249C65.1831 33.933 65.0536 33.844 65.0536 33.4636C65.1021 26.4465 65.1345 19.4374 65.1669 12.4203C65.1669 11.9104 65.1669 11.4005 65.1183 10.8825C64.9888 12.0885 64.8674 13.2944 64.746 14.5003C64.6002 15.9329 64.4626 17.3736 64.325 18.8061C64.1388 20.6838 63.9526 22.5615 63.7664 24.4392C63.6288 25.7828 63.4912 27.1182 63.3617 28.4618C63.2079 30.0319 63.046 31.6021 62.9083 33.1722C62.8436 33.9249 62.8598 33.9249 62.1312 33.9249C61.095 33.9249 60.0507 33.9249 59.0145 33.9249C58.8688 33.9249 58.7231 33.9249 58.5288 33.9249C57.695 26.2684 56.8693 18.6523 56.0436 11.0363C56.0355 11.0363 56.0274 11.0363 56.0193 11.0282C56.0112 11.1982 55.995 11.3681 55.995 11.53C56.0436 18.798 56.1002 26.0741 56.1488 33.3422C56.1569 33.9249 56.1488 33.9249 55.5498 33.9249C54.1169 33.9249 52.6921 33.9168 51.2593 33.933C50.9193 33.9411 50.7979 33.8602 50.7979 33.4879C50.8059 22.7882 50.8059 12.0966 50.8059 1.39687C50.8059 1.26737 50.8302 1.12978 50.8383 1.00028C53.1859 1.00028 55.5336 1.00028 57.8812 1.00028C57.9136 1.26737 57.9379 1.53446 57.9864 1.80154C58.294 3.50929 58.6017 5.21703 58.9093 6.92477C59.2007 8.55158 59.5326 10.1784 59.7755 11.8133C60.0426 13.6182 60.245 15.4392 60.4636 17.2603C60.5445 17.9401 60.5769 18.62 60.6336 19.2998C60.7307 18.7899 60.7793 18.28 60.8036 17.7701C60.9736 14.5489 61.5969 11.3924 62.1069 8.21974C62.3255 6.86811 62.5441 5.5084 62.7707 4.15677C62.9407 3.1127 63.1188 2.06054 63.2969 1.01647C65.7093 0.992187 68.1055 0.992188 70.5098 0.992188Z" fill="#162D4A"/>
<path d="M0 1.31445C0.161905 1.32255 0.32381 1.33873 0.485714 1.33873C2.88191 1.33873 5.28619 1.33873 7.68238 1.33873C8.89667 1.33873 10.0705 1.51679 11.1876 2.01859C12.9038 2.78748 13.851 4.19576 14.3124 5.96016C14.8548 8.01593 14.9519 10.1122 14.6929 12.2165C14.5229 13.5843 14.1424 14.9116 13.0252 15.8262C12.5233 16.239 11.8838 16.4818 11.3576 16.7813C12.0052 16.8946 12.6852 17.1859 13.2681 17.6796C14.3286 18.5699 14.9357 19.7516 15.2757 21.0628C15.9881 23.8065 15.9881 26.5583 15.1948 29.2777C14.4338 31.9 12.6852 33.5188 9.97334 34.0287C9.22048 34.1662 8.45143 34.2472 7.69048 34.2553C5.12429 34.2796 2.5581 34.2553 0 34.2553C0 23.2723 0 12.2974 0 1.31445ZM5.79619 24.5916C5.79619 26.3802 5.80429 28.177 5.7881 29.9657C5.7881 30.3137 5.89333 30.4108 6.22524 30.3866C6.67857 30.3623 7.14 30.3866 7.60143 30.3704C8.18429 30.3461 8.67 30.1114 8.90476 29.5691C9.09905 29.124 9.26095 28.6383 9.33381 28.1527C9.60905 26.1536 9.59286 24.1464 9.45524 22.1392C9.40667 21.427 9.22048 20.7066 8.99381 20.0268C8.74286 19.2579 8.15191 18.8289 7.31 18.8289C6.94572 18.8289 6.58143 18.8451 6.21714 18.8127C5.86905 18.7885 5.7881 18.9342 5.79619 19.2579C5.80429 21.0304 5.79619 22.811 5.79619 24.5916ZM5.83667 5.2803C5.82048 5.31268 5.80429 5.33696 5.80429 5.36124C5.79619 8.37205 5.79619 11.3748 5.7881 14.3856C5.7881 14.6203 5.90143 14.685 6.11191 14.6769C6.45191 14.6688 6.78381 14.6769 7.12381 14.6769C8.11953 14.6607 8.66191 14.248 8.8481 13.2687C9.24476 11.1562 9.1881 9.02762 8.81572 6.9233C8.6781 6.14631 8.29762 5.45836 7.43953 5.31268C6.92143 5.20746 6.37095 5.2803 5.83667 5.2803Z" fill="#162D4A"/>
<path d="M39.1004 34.9829C38.55 34.8615 37.9914 34.7724 37.449 34.6267C35.069 33.9712 33.5957 32.4334 33.1423 30.0053C32.9804 29.1474 32.9076 28.2652 32.9076 27.3992C32.8914 18.8928 32.8995 10.3784 32.8995 1.87207C32.8995 1.34598 32.8995 1.34598 33.4257 1.34598C35.069 1.34598 36.7204 1.34598 38.3638 1.34598C38.5095 1.34598 38.6552 1.34598 38.8495 1.34598C38.8576 1.54832 38.8738 1.7102 38.8738 1.88016C38.8738 10.4027 38.8738 18.9252 38.8819 27.4477C38.8819 28.0224 38.9304 28.6051 39.0114 29.1798C39.1328 30.0862 39.6509 30.499 40.5981 30.4909C41.5128 30.4828 42.0147 30.0701 42.12 29.1636C42.1928 28.5727 42.2252 27.9819 42.2252 27.3911C42.2333 18.8848 42.2333 10.3703 42.2333 1.86397C42.2333 1.34598 42.2333 1.34598 42.7595 1.34598C44.3624 1.34598 45.9733 1.35408 47.5762 1.33789C47.8757 1.33789 47.9971 1.40264 47.9971 1.73448C47.989 10.4998 47.989 19.2651 47.989 28.0305C47.989 29.1717 47.8514 30.2886 47.4305 31.3569C46.7424 33.1294 45.3905 34.1492 43.5852 34.6186C43.0186 34.7643 42.4357 34.8615 41.8609 34.9748C40.9381 34.9829 40.0152 34.9829 39.1004 34.9829Z" fill="#162D4A"/>
<path d="M85.7041 1.33789C85.7041 3.00517 85.7041 4.61579 85.7041 6.27497C85.5341 6.28306 85.3803 6.29925 85.2184 6.29925C83.4536 6.29925 81.6807 6.30734 79.916 6.29925C79.6488 6.29925 79.495 6.33162 79.495 6.66346C79.5031 9.41527 79.5031 12.1671 79.5031 14.9189C79.5031 14.9837 79.5112 15.0484 79.5193 15.1698C81.3326 15.1698 83.1298 15.1698 84.9593 15.1698C84.9593 16.7238 84.9593 18.2292 84.9593 19.775C84.8136 19.7831 84.6598 19.8074 84.506 19.8074C82.9679 19.8074 81.4298 19.8155 79.8917 19.7993C79.6003 19.7993 79.495 19.8722 79.495 20.1797C79.5031 23.0934 79.5031 26.0071 79.495 28.9208C79.495 29.2688 79.6326 29.3174 79.9241 29.3174C82.0045 29.3093 84.0769 29.3174 86.1574 29.3093C86.5136 29.3093 86.6188 29.4145 86.6188 29.7706C86.6026 31.1465 86.6026 32.5224 86.6188 33.8983C86.6188 34.1735 86.5541 34.2787 86.2545 34.2787C82.1664 34.2706 78.0783 34.2706 73.9902 34.2706C73.9093 34.2706 73.8283 34.2544 73.7069 34.2383C73.6988 34.0926 73.6907 33.9469 73.6907 33.8093C73.6907 23.142 73.6907 12.4746 73.6826 1.80732C73.6826 1.42692 73.7879 1.33789 74.1602 1.33789C77.8598 1.35408 81.5512 1.34598 85.2507 1.34598C85.3965 1.33789 85.5422 1.33789 85.7041 1.33789Z" fill="#162D4A"/>
<path d="M17.8665 17.7925C17.8665 12.4913 17.8665 7.18997 17.8665 1.89677C17.8665 1.34641 17.8665 1.34641 18.417 1.34641C20.0603 1.34641 21.7117 1.3626 23.3551 1.33832C23.7598 1.33022 23.8731 1.43544 23.8731 1.85631C23.857 10.824 23.8651 19.7917 23.8651 28.7593C23.8651 29.3259 23.8651 29.3259 24.4398 29.334C26.407 29.334 28.3822 29.3421 30.3493 29.3259C30.7055 29.3259 30.8189 29.423 30.8108 29.7872C30.7946 31.1469 30.7946 32.5147 30.8108 33.8745C30.8189 34.2306 30.6893 34.2953 30.3655 34.2953C26.3422 34.2872 22.327 34.2872 18.3036 34.2953C17.9313 34.2953 17.8584 34.1739 17.8584 33.8259C17.8746 28.468 17.8665 23.1262 17.8665 17.7925Z" fill="#162D4A"/>
</svg>
